<?xml version="1.0" encoding="UTF-8" standalone="no"?>
<!-- Created with Inkscape (http://www.inkscape.org/) -->

<svg
   width="150px"
   height="150px"
   viewBox="0 0 130.82123 164.94963"
   version="1.1"
   id="svg1"
   xml:space="preserve"
   inkscape:version="1.4.2 (f4327f4, 2025-05-13)"
   sodipodi:docname="mkctx.svg"
   xmlns:inkscape="http://www.inkscape.org/namespaces/inkscape"
   xmlns:sodipodi="http://sodipodi.sourceforge.net/DTD/sodipodi-0.dtd"
   xmlns="http://www.w3.org/2000/svg"
   xmlns:svg="http://www.w3.org/2000/svg"><sodipodi:namedview
     id="namedview1"
     pagecolor="#ffffff"
     bordercolor="#000000"
     borderopacity="0.25"
     inkscape:showpageshadow="2"
     inkscape:pageopacity="0.0"
     inkscape:pagecheckerboard="0"
     inkscape:deskcolor="#d1d1d1"
     inkscape:document-units="mm"
     inkscape:zoom="0.68862935"
     inkscape:cx="241.78464"
     inkscape:cy="327.46208"
     inkscape:window-width="1920"
     inkscape:window-height="991"
     inkscape:window-x="-9"
     inkscape:window-y="-9"
     inkscape:window-maximized="1"
     inkscape:current-layer="layer1" /><defs
     id="defs1" /><g
     inkscape:label="Layer 1"
     inkscape:groupmode="layer"
     id="layer1"
     transform="translate(-41.350953,-61.852353)"><path
       style="fill:#000000"
       d="m 118.01713,226.30627 c -7.62072,-2.43615 -10.99775,-11.68679 -6.8094,-18.65289 3.15152,-5.24163 10.117,-7.38458 15.69796,-4.82953 1.6865,0.7721 3.63559,2.47287 4.22235,3.68438 l 0.40835,0.84316 -2.12774,1.42454 -2.12775,1.42454 -0.96237,-0.92147 c -1.4362,-1.37516 -2.48452,-1.8066 -4.38971,-1.8066 -2.73247,0 -4.61181,1.11798 -5.72358,3.40486 -0.85295,1.75449 -0.88084,5.257 -0.0544,6.82867 1.13668,2.16159 3.12212,3.54498 5.40414,3.76543 1.6034,0.15489 2.9547,-0.30049 4.65955,-1.57024 l 1.38755,-1.03343 1.98029,1.49049 c 2.24364,1.68869 2.24547,1.70644 0.35505,3.44239 -1.52328,1.39882 -2.70129,2.08937 -4.43087,2.59738 -1.95442,0.57405 -5.54436,0.53011 -7.48944,-0.0917 z m 21.49605,-0.19382 c -1.77873,-0.91496 -3.02436,-2.49016 -3.41703,-4.32113 -0.16426,-0.76592 -0.28895,-4.13894 -0.28895,-7.81658 v -6.46927 h -1.45521 -1.45521 v -2.64583 -2.64584 h 1.45521 1.45521 v -2.77812 -2.77813 h 3.04271 3.04271 v 2.77813 2.77812 l 2.84427,-5.7e-4 2.84427,-5.8e-4 -0.0837,2.64641 -0.0837,2.64641 h -2.76055 -2.76055 v 5.82933 c 0,6.42126 0.18889,7.44755 1.45963,7.93069 0.96828,0.36813 2.10717,0.32739 3.16141,-0.1131 l 0.89988,-0.37599 0.0838,2.53447 0.0838,2.53447 -0.92604,0.40008 c -0.50933,0.22004 -1.99761,0.44836 -3.30729,0.50736 -2.20421,0.0993 -2.48931,0.0517 -3.83465,-0.64033 z M 41.350955,214.25234 V 202.2138 h 3.175 3.175 v 1.6437 1.6437 l 1.256771,-1.23449 c 1.876511,-1.84325 3.409281,-2.45064 6.151562,-2.43769 1.751603,0.008 2.54152,0.14276 3.571875,0.60813 1.439882,0.65034 2.880134,1.8939 3.44785,2.97699 l 0.359995,0.6868 1.68086,-1.64004 c 2.105612,-2.05447 3.59615,-2.63169 6.814419,-2.63892 2.789065,-0.006 4.309875,0.42148 5.979267,1.68174 1.592987,1.20258 2.889873,3.62496 3.275654,6.11842 0.146345,0.94588 0.266981,5.0833 0.26808,9.19427 l 0.002,7.47448 h -3.307292 -3.307291 l -0.0058,-7.60677 c -0.0052,-6.82927 -0.05574,-7.71495 -0.494263,-8.66511 -0.87577,-1.89753 -2.268774,-2.77812 -4.394718,-2.77812 -2.137546,0 -3.730956,1.0409 -4.657761,3.04271 -0.4399,0.95013 -0.490586,1.82245 -0.495803,8.53281 l -0.0058,7.47448 h -3.175 -3.175 v -7.54913 c 0,-8.17488 -0.08333,-8.74549 -1.491871,-10.21605 -0.882372,-0.92123 -2.637457,-1.40018 -4.246594,-1.15887 -1.568003,0.23513 -3.305911,1.83057 -3.7546,3.44679 -0.18179,0.65483 -0.294129,3.80266 -0.295042,8.26736 l -0.0015,7.2099 h -3.175 -3.175 z m 45.243748,-4.76249 V 192.6888 h 3.171818 3.171818 l 0.06933,9.93155 0.06933,9.93154 3.739126,-4.30915 c 2.056521,-2.37003 4.061405,-4.6961 4.455295,-5.16904 l 0.71617,-0.8599 h 3.68064 c 2.02436,0 3.68065,0.0629 3.68065,0.13987 0,0.13658 -1.11309,1.41684 -6.97103,8.01802 l -2.869984,3.23411 0.745644,0.98473 c 0.41011,0.5416 2.52205,3.24692 4.69322,6.01181 2.17117,2.7649 4.06444,5.17592 4.20726,5.35782 0.20527,0.26142 -0.53717,0.32764 -3.54303,0.31598 l -3.80271,-0.0147 -4.033868,-5.21077 c -2.218627,-2.86593 -4.209138,-5.4489 -4.423356,-5.73994 -0.347295,-0.47184 -0.390401,0.0943 -0.397904,5.22552 l -0.0084,5.75469 h -3.175 -3.175 z m 62.866987,16.47031 c 0.10559,-0.1819 1.85116,-2.82316 3.87904,-5.86947 2.02789,-3.0463 3.73993,-5.67649 3.80454,-5.84486 0.0646,-0.16837 -1.55487,-2.87036 -3.59884,-6.00442 -2.04397,-3.13406 -3.71631,-5.77594 -3.71631,-5.87085 0,-0.0949 1.51039,-0.13924 3.35642,-0.0985 l 3.35642,0.0741 2.05277,3.39528 c 1.12902,1.86741 2.11895,3.53428 2.19983,3.70417 0.0958,0.20123 0.19425,0.21341 0.28247,0.0349 0.23924,-0.48401 4.38175,-6.86224 4.59635,-7.07703 0.11388,-0.11397 1.60022,-0.1735 3.303,-0.13229 l 3.09596,0.0749 -3.91171,5.80305 -3.91172,5.80306 3.85098,5.83861 c 2.11805,3.21123 3.94077,5.98744 4.05051,6.16934 0.15539,0.25756 -0.52979,0.33073 -3.09716,0.33073 h -3.29669 l -2.32035,-3.77032 c -1.27619,-2.07367 -2.39654,-3.86087 -2.48966,-3.97157 -0.0931,-0.11069 -1.29308,1.58595 -2.66657,3.77032 l -2.49726,3.97157 h -3.257 c -2.53159,0 -3.21423,-0.0737 -3.06502,-0.33073 z M 58.303342,179.58058 c -6.139539,-1.34109 -11.317688,-6.12059 -13.45428,-12.41849 l -0.719982,-2.12224 -0.07661,-42.99479 c -0.05462,-30.655336 0.0078,-43.488003 0.217479,-44.713306 0.717577,-4.193198 2.507832,-7.538445 5.608501,-10.479974 2.137472,-2.027768 4.579644,-3.432934 7.612087,-4.379809 l 1.984375,-0.619618 h 44.317708 44.3177 l 2.11667,0.726199 c 6.14298,2.10757 10.61563,6.379576 12.50004,11.939266 l 0.72913,2.151201 v 44.053121 c 0,42.23823 -0.0203,44.11853 -0.49321,45.64062 -1.9267,6.2016 -6.87607,11.15081 -13.00054,13.00014 -1.50194,0.45352 -3.9691,0.48231 -45.77292,0.53427 -37.100819,0.0461 -44.458104,-0.005 -45.886148,-0.31659 z m 32.45845,-14.21 4.569481,-4.56407 16.885357,-0.13229 16.88536,-0.13229 1.00332,-0.76545 c 0.59864,-0.45671 1.26071,-1.32767 1.64148,-2.15937 l 0.63815,-1.39392 -0.0748,-14.53045 -0.0748,-14.53044 -0.79375,-1.28131 c -0.52117,-0.84128 -1.19421,-1.4928 -1.95985,-1.89716 l -1.16609,-0.61586 -24.49849,0.006 c -23.196025,0.005 -24.555337,0.0316 -25.567767,0.49151 -1.446707,0.65715 -2.39723,1.86166 -2.743598,3.47672 -0.186612,0.87014 -0.288165,6.12416 -0.288165,14.90866 0,15.07309 0.0403,15.48945 1.646396,17.00995 1.313975,1.24394 1.828747,1.41359 4.289335,1.41359 h 2.266352 v 3.98078 c 0,3.87372 0.01746,3.99824 0.649432,4.63021 1.301922,1.30192 1.707315,1.0648 6.692657,-3.91463 z m 8.552119,-10.94975 c -0.30161,-0.38342 -0.54837,-0.86189 -0.54837,-1.06325 0,-0.20136 1.360269,-3.96553 3.022829,-8.36484 6.16569,-16.31504 5.85963,-15.63258 7.15676,-15.95814 0.80304,-0.20155 1.91912,0.44442 2.23589,1.29411 0.27057,0.72577 0.16014,1.06696 -3.09946,9.57572 -1.44942,3.78354 -3.26304,8.54604 -4.03027,10.58333 -0.76722,2.0373 -1.62873,3.91253 -1.91446,4.16719 -0.79987,0.71291 -2.167189,0.59951 -2.822919,-0.23412 z m -10.131366,-6.91778 c -3.960901,-3.9609 -4.704509,-4.82736 -4.704509,-5.48172 0,-0.65352 0.727686,-1.5049 4.572447,-5.34966 4.052243,-4.05224 4.670691,-4.57245 5.435986,-4.57245 1.080846,0 2.162401,1.00898 2.162401,2.0173 0,0.5678 -0.746076,1.47178 -3.558399,4.31151 l -3.558399,3.59307 3.558399,3.60828 c 3.962964,4.01853 4.160185,4.4296 2.785002,5.80478 -0.425369,0.42537 -1.046777,0.7734 -1.380908,0.7734 -0.434458,0 -1.947613,-1.34011 -5.31202,-4.70451 z m 23.708855,4.08492 c -0.50729,-0.43635 -0.72031,-0.87215 -0.72031,-1.47362 0,-0.74303 0.46031,-1.31529 3.54166,-4.403 l 3.54166,-3.54896 -3.49756,-3.53217 c -3.00728,-3.03703 -3.49757,-3.64963 -3.49757,-4.37012 0,-1.34274 1.69641,-2.57435 2.73591,-1.98631 0.21614,0.12227 2.42742,2.21795 4.91396,4.65706 3.64675,3.5772 4.52097,4.57329 4.52097,5.15122 0,0.57565 -0.92464,1.6411 -4.70451,5.42098 -5.11055,5.11054 -5.42402,5.29791 -6.83421,4.08492 z m 12.51402,-35.08599 c 1.18003,-0.71952 1.48289,-1.4359 1.57114,-3.71635 l 0.0768,-1.98536 1.42585,-0.13229 c 2.598,-0.24105 3.09462,-1.1964 3.09462,-5.95313 0,-4.780787 -0.63684,-5.953127 -3.23387,-5.953127 -0.98463,0 -1.26405,-0.094 -1.26405,-0.42519 0,-0.23386 -0.35686,-1.17292 -0.79301,-2.08681 -1.54116,-3.2292 -4.95259,-5.838505 -8.6606,-6.62425 -1.18559,-0.25123 -3.46847,-0.381112 -6.75212,-0.384152 l -4.96093,-0.0046 v -3.108854 l 1e-5,-3.108854 0.95402,-0.761211 c 0.96735,-0.771852 1.94119,-2.506644 1.9491,-3.472122 0.01,-1.189721 -0.6362,-2.690112 -1.55272,-3.606629 -2.37715,-2.377156 -6.49401,-1.790292 -7.988289,1.138745 -1.116171,2.187875 -0.20465,5.465036 1.770349,6.364908 0.61722,0.281223 0.63419,0.372795 0.63419,3.421487 v 3.13253 l -5.093226,0.0039 c -6.762997,0.0052 -8.638198,0.449855 -11.892825,2.820118 -1.41251,1.028695 -3.165975,3.494484 -3.845472,5.407654 l -0.459346,1.29332 h -1.25664 c -1.014198,0 -1.423342,0.14882 -2.120709,0.77138 l -0.86407,0.771387 -0.08614,3.88803 c -0.05817,2.6256 0.01789,4.1392 0.234251,4.66154 0.503502,1.21557 1.460853,1.81391 2.902267,1.81391 h 1.25922 l 0.09531,2.0988 c 0.102627,2.2599 0.575635,3.26765 1.838307,3.91657 0.488659,0.25113 5.446492,0.3275 21.405743,0.32974 20.10285,0.003 20.79686,-0.0136 21.6128,-0.51111 z m -33.650752,-8.61723 c -1.206692,-0.65178 -1.748381,-1.21604 -2.281105,-2.37615 -0.615626,-1.34064 -0.614944,-2.36642 0.0025,-3.70417 0.591146,-1.28084 1.428756,-2.086927 2.736184,-2.633197 1.397011,-0.58371 2.290402,-0.51115 3.916309,0.3181 1.910401,0.974337 2.745861,2.458027 2.544321,4.518407 -0.15948,1.63036 -0.576611,2.36783 -1.917997,3.39096 -1.210899,0.92359 -3.73574,1.16903 -5.000176,0.48605 z m 19.586402,-0.20172 c -2.73992,-1.55183 -3.2725,-5.14059 -1.09554,-7.38214 2.31575,-2.384457 6.38081,-1.764157 7.81188,1.19205 1.09941,2.27108 0.33578,5.026 -1.71693,6.19412 -1.41976,0.80793 -3.56889,0.80619 -4.99941,-0.004 z"
       id="path1" /></g></svg>
